<?xml version="1.0" encoding="UTF-8"?>
<svg xmlns="http://www.w3.org/2000/svg" xmlns:xlink="http://www.w3.org/1999/xlink" viewBox="0 0 128 128" width="20px" height="20px">
<g id="surface233616546">
<path style=" stroke:none;fill-rule:nonzero;fill:rgb(100%,100%,100%);fill-opacity:0.6;" d="M 80.179688 8.535156 C 75.074219 8.535156 70.933594 12.671875 70.933594 17.777344 C 70.933594 22.882812 75.074219 27.023438 80.179688 27.023438 L 87.90625 27.023438 L 62.085938 52.839844 C 58.476562 56.453125 58.476562 62.304688 62.085938 65.914062 C 63.890625 67.714844 66.257812 68.621094 68.621094 68.621094 C 70.988281 68.621094 73.355469 67.714844 75.160156 65.914062 L 100.976562 40.09375 L 100.976562 47.820312 C 100.976562 52.925781 105.117188 57.066406 110.222656 57.066406 C 115.328125 57.066406 119.464844 52.925781 119.464844 47.820312 L 119.464844 17.777344 C 119.464844 12.671875 115.328125 8.535156 110.222656 8.535156 Z M 33.957031 13.15625 C 22.484375 13.15625 13.15625 22.488281 13.15625 33.957031 L 13.15625 94.042969 C 13.15625 105.511719 22.484375 114.84375 33.957031 114.84375 L 94.042969 114.84375 C 105.515625 114.84375 114.84375 105.511719 114.84375 94.042969 L 114.84375 75.554688 C 114.84375 70.449219 110.707031 66.3125 105.601562 66.3125 C 100.496094 66.3125 96.355469 70.449219 96.355469 75.554688 L 96.355469 94.042969 C 96.355469 95.316406 95.320312 96.355469 94.042969 96.355469 L 33.957031 96.355469 C 32.679688 96.355469 31.644531 95.316406 31.644531 94.042969 L 31.644531 33.957031 C 31.644531 32.683594 32.679688 31.644531 33.957031 31.644531 L 52.445312 31.644531 C 57.550781 31.644531 61.6875 27.503906 61.6875 22.398438 C 61.6875 17.292969 57.550781 13.15625 52.445312 13.15625 Z M 33.957031 13.15625 "/>
</g>
</svg>
