<?xml version="1.0" encoding="UTF-8"?>
<svg xmlns="http://www.w3.org/2000/svg" xmlns:xlink="http://www.w3.org/1999/xlink" viewBox="0 0 48 48" width="18px" height="18px">
<g id="surface233727125">
<path style=" stroke:none;fill-rule:nonzero;fill:rgb(100%,100%,100%);fill-opacity:1;" d="M 41.46875 4.988281 C 41.417969 4.988281 41.363281 4.992188 41.308594 5 L 27.5 5 C 26.960938 4.992188 26.457031 5.277344 26.183594 5.742188 C 25.910156 6.210938 25.910156 6.789062 26.183594 7.257812 C 26.457031 7.722656 26.960938 8.007812 27.5 8 L 37.878906 8 L 22.4375 23.441406 C 22.046875 23.816406 21.890625 24.375 22.027344 24.898438 C 22.164062 25.425781 22.574219 25.835938 23.101562 25.972656 C 23.625 26.109375 24.183594 25.953125 24.558594 25.5625 L 40 10.121094 L 40 20.5 C 39.992188 21.039062 40.277344 21.542969 40.742188 21.816406 C 41.210938 22.089844 41.789062 22.089844 42.257812 21.816406 C 42.722656 21.542969 43.007812 21.039062 43 20.5 L 43 6.691406 C 43.058594 6.253906 42.925781 5.8125 42.628906 5.484375 C 42.335938 5.15625 41.910156 4.972656 41.472656 4.988281 Z M 12.5 8 C 8.375 8 5 11.375 5 15.5 L 5 35.5 C 5 39.625 8.375 43 12.5 43 L 32.5 43 C 36.625 43 40 39.625 40 35.5 L 40 25.5 C 40.007812 24.960938 39.722656 24.457031 39.257812 24.183594 C 38.789062 23.910156 38.210938 23.910156 37.742188 24.183594 C 37.277344 24.457031 36.992188 24.960938 37 25.5 L 37 35.5 C 37 38.003906 35.003906 40 32.5 40 L 12.5 40 C 9.996094 40 8 38.003906 8 35.5 L 8 15.5 C 8 12.996094 9.996094 11 12.5 11 L 22.5 11 C 23.039062 11.007812 23.542969 10.722656 23.816406 10.257812 C 24.089844 9.789062 24.089844 9.210938 23.816406 8.742188 C 23.542969 8.277344 23.039062 7.992188 22.5 8 Z M 12.5 8 "/>
</g>
</svg>
